<?xml version="1.0" encoding="utf-8"?>
<!-- Generator: Adobe Illustrator 21.0.2, SVG Export Plug-In . SVG Version: 6.00 Build 0)  -->
<svg version="1.1" id="Capa_1" xmlns="http://www.w3.org/2000/svg" xmlns:xlink="http://www.w3.org/1999/xlink" x="0px" y="0px"
	 viewBox="0 0 33 33" style="enable-background:new 0 0 33 33;" xml:space="preserve">
<style type="text/css">
	.st0{fill:#FFFFFF;}
</style>
<g>
	<path class="st0" d="M7.3,32.7c-0.1,0-0.2,0-0.2-0.1c-0.2-0.1-0.3-0.3-0.3-0.4v-7.1C2.4,22.8,0,18.8,0,13.8C0,6.1,7.1,0.3,16.5,0.3
		S33,6.1,33,13.8c0,7.7-7.1,13.5-16.5,13.5c-0.3,0-0.6,0-0.9,0l0,0l-8,5.3C7.5,32.7,7.4,32.7,7.3,32.7z M16.5,1.3
		C7.7,1.3,1,6.7,1,13.8c0,3.3,1.1,7.8,6.5,10.5c0.2,0.1,0.3,0.3,0.3,0.4v6.5l7.4-4.9c0.1-0.1,0.2-0.1,0.3-0.1l0.2,0
		c0.3,0,0.6,0,0.9,0C25.3,26.4,32,21,32,13.8S25.3,1.3,16.5,1.3z"/>
</g>
</svg>
