<?xml version="1.0" encoding="utf-8"?>
<!-- Generator: Adobe Illustrator 21.0.2, SVG Export Plug-In . SVG Version: 6.00 Build 0)  -->
<svg version="1.1" id="Capa_1" xmlns="http://www.w3.org/2000/svg" xmlns:xlink="http://www.w3.org/1999/xlink" x="0px" y="0px"
	 viewBox="0 0 32.6 32.6" style="enable-background:new 0 0 32.6 32.6;" xml:space="preserve">
<style type="text/css">
	.st0{stroke:#000000;stroke-width:2;stroke-miterlimit:10;}
</style>
<g>
	<path class="st0" d="M32.1,16.8H0.5c-0.3,0-0.5-0.2-0.5-0.5s0.2-0.5,0.5-0.5h31.6c0.3,0,0.5,0.2,0.5,0.5
		C32.6,16.6,32.4,16.8,32.1,16.8z"/>
	<path class="st0" d="M19.6,29.4c-0.1,0-0.3,0-0.4-0.1c-0.2-0.2-0.2-0.5,0-0.7l12.2-12.2L19.2,4.1c-0.2-0.2-0.2-0.5,0-0.7
		s0.5-0.2,0.7,0L32.5,16c0.1,0.1,0.1,0.2,0.1,0.4s-0.1,0.3-0.1,0.4L20,29.2C19.9,29.3,19.7,29.4,19.6,29.4z"/>
</g>
</svg>
