<?xml version="1.0" encoding="utf-8"?>
<!-- Generator: Adobe Illustrator 21.0.2, SVG Export Plug-In . SVG Version: 6.00 Build 0)  -->
<svg version="1.1" id="Capa_1" xmlns="http://www.w3.org/2000/svg" xmlns:xlink="http://www.w3.org/1999/xlink" x="0px" y="0px"
	 viewBox="0 0 29.7 29.7" style="enable-background:new 0 0 29.7 29.7;" xml:space="preserve">
<style type="text/css">
	.st0{fill:#FCFCFC;}
</style>
<g>
	<path class="st0" d="M23.9,29.7c-1.2,0-2.7-0.3-4.4-0.9c-3.6-1.4-7.5-4-11-7.6c-3.5-3.5-6.2-7.4-7.6-11c-1.2-3.3-1.2-6,0-7.2
		c0.2-0.2,0.4-0.4,0.5-0.6C2.6,1.3,3.9-0.1,5.5,0c1.2,0,2.3,0.8,3.4,2.2c3.4,4.2,1.9,5.7,0.1,7.5L8.8,10c-0.3,0.3-0.8,1.6,4.3,6.7
		c1.7,1.7,3.1,2.9,4.2,3.6c0.7,0.5,2,1.2,2.5,0.6l0.3-0.3c1.7-1.8,3.2-3.3,7.5,0.1c1.4,1.1,2.1,2.3,2.2,3.4c0.1,1.7-1.3,3-2.5,4.1
		c-0.2,0.2-0.4,0.4-0.6,0.5C26.1,29.4,25.1,29.7,23.9,29.7z M5.4,1C4.2,1,3.1,2.1,2.2,3.1C2,3.3,1.8,3.5,1.6,3.7
		C0.7,4.6,0.8,7,1.9,9.9c1.3,3.5,3.9,7.3,7.3,10.7c3.4,3.4,7.2,6,10.7,7.3c2.8,1.1,5.2,1.2,6.1,0.2c0.2-0.2,0.4-0.4,0.6-0.6
		c1-1,2.2-2.1,2.1-3.3c0-0.8-0.6-1.8-1.8-2.7c-3.5-2.8-4.5-1.8-6.1-0.2l-0.3,0.3c-0.8,0.8-2,0.6-3.8-0.5c-1.2-0.8-2.7-2-4.4-3.8
		C8.1,13.2,6.7,10.6,8,9.3L8.4,9C10,7.3,11,6.3,8.2,2.8C7.2,1.7,6.3,1,5.4,1C5.5,1,5.4,1,5.4,1z"/>
</g>
</svg>
