<?xml version="1.0" encoding="utf-8"?>
<!-- Generator: Adobe Illustrator 21.0.2, SVG Export Plug-In . SVG Version: 6.00 Build 0)  -->
<svg version="1.1" id="Capa_1" xmlns="http://www.w3.org/2000/svg" xmlns:xlink="http://www.w3.org/1999/xlink" x="0px" y="0px"
	 viewBox="0 0 32.6 32.6" style="enable-background:new 0 0 32.6 32.6;" xml:space="preserve">
<style type="text/css">
	.st0{stroke:#000000;stroke-width:2;stroke-miterlimit:10;}
</style>
<g>
	<path class="st0" d="M0,16.3c0-0.3,0.2-0.5,0.5-0.5h31.6c0.3,0,0.5,0.2,0.5,0.5c0,0.3-0.2,0.5-0.5,0.5H0.5C0.2,16.8,0,16.6,0,16.3z
		"/>
	<path class="st0" d="M12.6,29.2L0.1,16.8c0-0.1-0.1-0.2-0.1-0.4c0-0.2,0-0.3,0.1-0.4L12.7,3.4c0.2-0.2,0.5-0.2,0.7,0s0.2,0.5,0,0.7
		L1.2,16.4l12.2,12.2c0.2,0.2,0.2,0.5,0,0.7c-0.1,0.1-0.3,0.1-0.4,0.1S12.7,29.3,12.6,29.2z"/>
</g>
</svg>
